# xmcd CD database file
#
# Track frame offsets:
#	187
#	18442
#	36105
#	48705
#	64817
#	81965
#	95285
#	110570
#	128177
#	146595
#	166160
#	178787
#	195385
#	212332
#	229160
#	250542
#	265302
#
# Disc length: 3888 seconds
#
# Revision: 4
# Processed by: cddbd v1.5.1PL0 Copyright (c) Steve Scherf et al.
# Submitted via: CDex 1.51
#
DISCID=e70f2e11
DTITLE=Trisha Yearwood - (Songbook) A Collection of Hits
DYEAR=1997
DGENRE=Country
TTITLE0=How Do I Live
TTITLE1=The Song Remembers When
TTITLE2=The Wrong Side Of Memphis
TTITLE3=In Another's Eyes
TTITLE4=The Woman Before Me
TTITLE5=Perfect Love
TTITLE6=Thinkin' About You
TTITLE7=Down On My Knees
TTITLE8=She's In Love With The Boy
TTITLE9=Walkaway Joe
TTITLE10=XXX's And OOO's (An American Girl)
TTITLE11=Like We Never Had A Broken Heart
TTITLE12=A Lover Is Forever
TTITLE13=Believe Me Baby I Lied
TTITLE14=On A bus To St. Cloud
TTITLE15=You Can Sleep While I Drive
TTITLE16=The Flame
EXTD=YEAR: 1997
EXTT0=
EXTT1=
EXTT2=
EXTT3=
EXTT4=
EXTT5=
EXTT6=
EXTT7=
EXTT8=
EXTT9=
EXTT10=
EXTT11=
EXTT12=
EXTT13=
EXTT14=
EXTT15=
EXTT16=
PLAYORDER=
